Coordinates
version=1
nRows=13
nColumns=36
inDegrees=yes

Units are S.I. units (second, meters, Newtons, ...)
If the header above contains a line with 'inDegrees', this indicates whether rotational values are in degrees (yes) or radians (no).

endheader
time	pelvis_tilt	pelvis_list	pelvis_rotation	pelvis_tx	pelvis_ty	pelvis_tz	hip_flexion_r	hip_adduction_r	hip_rotation_r	knee_angle_r	knee_angle_r_beta	ankle_angle_r	subtalar_angle_r	mtp_angle_r	hip_flexion_l	hip_adduction_l	hip_rotation_l	knee_angle_l	knee_angle_l_beta	ankle_angle_l	subtalar_angle_l	mtp_angle_l	lumbar_extension	lumbar_bending	lumbar_rotation	arm_flex_r	arm_add_r	arm_rot_r	elbow_flex_r	pro_sup_r	arm_flex_l	arm_add_l	arm_rot_l	elbow_flex_l	pro_sup_l
      0.00000000	      1.68321709	      0.60352850	      0.28195382	     -0.19448641	      0.92059474	     -0.25215362	     25.39861908	     -0.22703896	     -3.13549475	      1.67699512	      0.02926909	      7.35114911	      0.52321856	     -5.70360998	    -23.48720424	      3.86454336	     -0.58869075	      6.31378173	      0.11019628	     13.76934347	      0.80242650	     -5.70360998	     -9.66100116	     -0.35004768	     -5.53729002	     -5.84486306	     -3.87389562	    -10.18756604	     31.18103330	    109.90644586	      6.89273123	     -8.73071212	     11.75592854	     34.58491806	    106.61294229
      0.01000000	      1.79401460	      0.41248368	      0.38827624	     -0.17887364	      0.91895973	     -0.25226451	     25.08972580	      0.03836776	     -2.97071448	      2.48389914	      0.04335222	      7.12767109	      0.14129589	     -5.71406911	    -24.01693447	      3.57279263	     -0.68009082	      7.36643894	      0.12856861	     13.15970635	      0.75660147	     -5.71406911	     -9.39610555	      0.50276449	     -5.56967940	     -6.05506630	     -3.97914768	    -10.36096331	     30.96183403	    109.88536810	      6.54669920	     -8.49113684	     11.68270410	     34.31802308	    106.61067288
      0.02000000	      1.68183422	      0.21810709	      0.42754005	     -0.16329135	      0.91705681	     -0.25206666	     25.00827720	      0.41769587	     -2.22019601	      3.20573952	      0.05595071	      5.51748985	     -2.54312105	     -5.79961028	    -24.08528158	      3.24753093	     -1.43288008	      8.77658599	      0.15318032	     12.45073078	      0.71026446	     -5.79961028	     -8.82040305	      1.32719368	     -5.48314454	     -6.31945257	     -3.86674459	    -11.57088178	     30.64404852	    109.81234370	      6.27869706	     -8.04539580	     11.04769440	     33.55318611	    106.73704636
      0.03000000	      1.64953798	     -0.04737979	      0.51317194	     -0.14752945	      0.91547771	     -0.25195538	     24.90535136	      0.79134290	     -2.16263008	      4.15610348	      0.07253769	      4.54460003	     -3.19047084	     -5.82151315	    -24.25264391	      2.83521484	     -1.87360033	     10.13784437	      0.17693876	     11.42933772	      0.48979665	     -5.82151315	     -8.35567012	      2.24111683	     -5.50272805	     -6.54917192	     -3.95206344	    -11.88297486	     30.38381633	    109.78274339	      5.88841657	     -7.79580951	     10.96064081	     33.17709301	    106.76521664
      0.04000000	      1.49061955	     -0.31358760	      0.54308024	     -0.13175633	      0.91398049	     -0.25163425	     24.95365638	      1.19873354	     -1.85566219	      5.15577529	      0.08998525	      2.88179914	     -4.25743607	     -5.84755707	    -24.10902381	      2.41726255	     -2.36148131	     11.75659929	      0.20519137	     10.21789070	      0.13749474	     -5.84755707	     -7.73537822	      3.13507953	     -5.46030561	     -6.75450074	     -4.00664878	    -12.36466463	     29.99372048	    109.72119311	      5.52139390	     -7.48597127	     10.75221676	     32.58127467	    106.77304940
      0.05000000	      1.23645385	     -0.57160165	      0.48705514	     -0.11606796	      0.91267767	     -0.25097406	     24.96625530	      1.71818279	     -0.44091373	      5.90777266	      0.10311008	     -0.23091605	     -7.39429005	     -5.92160790	    -23.73229744	      2.03926056	     -2.58281002	     13.55046201	      0.23650018	      8.85411234	     -0.53187395	     -5.92160790	     -7.01904489	      3.98337709	     -5.26932522	     -6.92953404	     -3.95913117	    -13.30268675	     29.54117157	    109.64989446	      5.24837716	     -7.12445877	     10.44075232	     31.71973803	    106.88252411
      0.06000000	      1.08141885	     -1.01868677	      0.40905923	     -0.10021183	      0.91188657	     -0.25020196	     24.97252747	      2.39925606	      0.26860456	      6.96526414	      0.12156679	     -2.63773946	     -9.03573696	     -6.00462735	    -23.26855298	      1.41000444	     -3.17514370	     15.61338284	      0.27250494	      7.03186987	     -1.13238044	     -6.00462735	     -6.43564317	      5.04955018	     -5.12119146	     -7.07125911	     -4.05727436	    -13.76646664	     29.17477324	    109.66465350	      4.85442121	     -6.85314044	     10.44562296	     31.10277043	    107.01135356
      0.07000000	      0.93440640	     -1.50627366	      0.29813416	     -0.08443429	      0.91147123	     -0.24927529	     25.03264166	      3.13241133	      0.99058896	      8.24861642	      0.14396552	     -4.75098964	    -10.54626901	     -6.08752109	    -22.58922214	      0.71221907	     -3.74532475	     17.99075787	      0.31399796	      4.91082976	     -1.90583838	     -6.08752109	     -5.88902893	      6.12753350	     -4.95857418	     -7.13807814	     -4.17105273	    -14.16478883	     28.69756016	    109.66303684	      4.49362616	     -6.57423385	     10.43391266	     30.38445496	    107.05800496
      0.08000000	      0.90889750	     -2.11583597	      0.13111878	     -0.06867080	      0.91157350	     -0.24827811	     25.04735377	      3.95539375	      1.30681351	      9.82701335	      0.17151374	     -5.72107705	    -10.89819283	     -6.10474914	    -21.79274002	     -0.18812355	     -4.62190368	     20.74863234	      0.36213195	      2.59276850	     -2.28223576	     -6.10474914	     -5.53791303	      7.32965874	     -4.79702574	     -7.12165217	     -4.37054660	    -14.36945472	     28.30975853	    109.62997755	      4.05549188	     -6.28677818	     10.40878800	     29.87240599	    107.02656149
      0.09000000	      0.84369173	     -2.77461066	     -0.10884200	     -0.05310963	      0.91193613	     -0.24705946	     25.12641138	      4.89854980	      1.85988953	     11.55296219	      0.20163723	     -6.48503610	    -11.79714395	     -6.12256702	    -20.74152733	     -1.15790444	     -5.40961754	     23.79483851	      0.41529828	     -0.02001828	     -2.89119275	     -6.12256702	     -5.18694402	      8.57311303	     -4.59327655	     -7.04055176	     -4.55470376	    -14.62805265	     27.85489393	    109.59173608	      3.66232507	     -5.99276895	     10.39332084	     29.24072426	    106.98488682
      0.10000000	      0.63590698	     -3.36910084	     -0.42928139	     -0.03787706	      0.91241014	     -0.24568226	     25.33647150	      5.85986758	      2.85032210	     13.29757744	      0.23208651	     -7.68183955	    -13.86995296	     -6.16645986	    -19.30940598	     -2.02483340	     -5.89101335	     27.10703536	      0.47310702	     -3.23762138	     -4.42614376	     -6.16645986	     -4.68898892	      9.69009750	     -4.29587322	     -6.90165627	     -4.70223791	    -15.09330831	     27.35152389	    109.57564769	      3.34675149	     -5.69108935	     10.54247037	     28.35853883	    106.95687942
      0.11000000	      0.84239688	     -4.21414049	     -0.76096125	     -0.02269880	      0.91371894	     -0.24415564	     24.96105275	      7.05734664	      3.33279844	     14.91407588	      0.26029973	     -7.52339875	    -14.78539440	     -6.18407753	    -18.19759490	     -3.33119420	     -6.85858303	     30.58679537	      0.53384029	     -6.25097395	     -4.81378378	     -6.18407753	     -4.79941431	     11.05276473	     -3.97466576	     -6.70902647	     -4.92099341	    -15.30838788	     27.11660171	    109.57147492	      2.97262779	     -5.44920025	     10.66114671	     27.97659550	    106.95078211
      0.12000000	      0.88443365	     -4.98090994	     -1.14009727	     -0.00797465	      0.91499583	     -0.24251725	     24.68490045	      8.20435259	      3.95194930	     16.40773873	      0.28636906	     -7.33626049	    -15.81851191	     -6.20545482	    -16.70794882	     -4.55089960	     -7.54362434	     34.26574385	      0.59805005	     -9.45605001	     -5.72510052	     -6.20545482	     -4.75047330	     12.29037393	     -3.62159438	     -6.46624821	     -5.09701642	    -15.59461578	     26.89785719	    109.57813820	      2.65695581	     -5.21919140	     10.81732320	     27.50997350	    106.95318549
